# xmcd
#
# Track frame offsets: 
#        150
#        7171
#        16209
#        32095
#        42635
#        56033
#        67759
#        78384
#        91892
#        100593
#        114948
#        123884
#
# Disc length: 1801 seconds
#
# Revision: 14
# Processed by: cddbd v1.5.2PL0 Copyright (c) Steve Scherf et al.
# Submitted via: ExactAudioCopy v1.3
#
DISCID=8c07070c
DTITLE=The Hives - Tyrannosaurus Hives
DYEAR=2004
DGENRE=Punk Rock
TTITLE0=Abra Cadaver
TTITLE1=Two-Timing Touch And Broken Bones
TTITLE2=Walk Idiot Walk
TTITLE3=No Pun Intended
TTITLE4=A Little More For Little You
TTITLE5=B Is For Brutus
TTITLE6=See Through Head
TTITLE7=Diabolic Scheme
TTITLE8=Missing Link
TTITLE9=Love In Plaster
TTITLE10=Dead Quote Olympics
TTITLE11=Antidote
EXTD=
EXTT0=
EXTT1=
EXTT2=
EXTT3=
EXTT4=
EXTT5=
EXTT6=
EXTT7=
EXTT8=
EXTT9=
EXTT10=
EXTT11=
PLAYORDER=
